<svg xmlns="http://www.w3.org/2000/svg" width="32" height="32" viewBox="0 0 32 32">
  <!-- 背景円 -->
  <circle cx="16" cy="16" r="15" fill="#4a4a7c"/>
  <!-- 白い縁取り -->
  <circle cx="16" cy="16" r="14" fill="none" stroke="white" stroke-width="1.5"/>
  <!-- Material UI ThumbUp icon -->
  <g transform="translate(8,8) scale(0.67)">
    <path d="M1 21h4V9H1v12zm22-11c0-1.1-.9-2-2-2h-6.31l.95-4.57.03-.32c0-.41-.17-.79-.44-1.06L14.17 1 7.59 7.59C7.22 7.95 7 8.45 7 9v10c0 1.1.9 2 2 2h9c.83 0 1.54-.5 1.84-1.22l3.02-7.05c.09-.23.14-.47.14-.73v-2z" fill="white"/>
  </g>
</svg>
